G04 #@! TF.GenerationSoftware,KiCad,Pcbnew,(5.0.2)-1*
G04 #@! TF.CreationDate,2019-07-28T23:18:33+08:00*
G04 #@! TF.ProjectId,DOOR,444f4f52-2e6b-4696-9361-645f70636258,rev?*
G04 #@! TF.SameCoordinates,Original*
G04 #@! TF.FileFunction,Copper,L1,Top*
G04 #@! TF.FilePolarity,Positive*
%FSLAX46Y46*%
G04 Gerber Fmt 4.6, Leading zero omitted, Abs format (unit mm)*
G04 Created by KiCad (PCBNEW (5.0.2)-1) date 2019-07-28 23:18:33*
%MOMM*%
%LPD*%
G01*
G04 APERTURE LIST*
G04 #@! TA.AperFunction,SMDPad,CuDef*
%ADD10O,2.000000X3.000000*%
G04 #@! TD*
G04 #@! TA.AperFunction,SMDPad,CuDef*
%ADD11O,2.500000X2.000000*%
G04 #@! TD*
G04 #@! TA.AperFunction,ComponentPad*
%ADD12C,2.000000*%
G04 #@! TD*
G04 #@! TA.AperFunction,Conductor*
%ADD13C,2.000000*%
G04 #@! TD*
G04 #@! TA.AperFunction,SMDPad,CuDef*
%ADD14O,1.000000X5.200000*%
G04 #@! TD*
G04 #@! TA.AperFunction,SMDPad,CuDef*
%ADD15O,2.500000X5.000000*%
G04 #@! TD*
G04 #@! TA.AperFunction,SMDPad,CuDef*
%ADD16O,3.000000X2.000000*%
G04 #@! TD*
G04 #@! TA.AperFunction,ViaPad*
%ADD17C,0.800000*%
G04 #@! TD*
G04 #@! TA.AperFunction,Conductor*
%ADD18C,0.250000*%
G04 #@! TD*
G04 APERTURE END LIST*
D10*
G04 #@! TO.P,REF\002A\002A,*
G04 #@! TO.N,A2*
X141732000Y-82219800D03*
G04 #@! TD*
G04 #@! TO.P,REF\002A\002A,*
G04 #@! TO.N,A3*
X149946360Y-82326480D03*
G04 #@! TD*
D11*
G04 #@! TO.P,REF\002A\002A,*
G04 #@! TO.N,GND*
X137695940Y-84681060D03*
G04 #@! TD*
D12*
G04 #@! TO.P,BT1,1*
G04 #@! TO.N,+3V3*
X153055320Y-81153940D03*
D13*
G04 #@! TD*
G04 #@! TO.N,+3V3*
G04 #@! TO.C,BT1*
X153232097Y-80977163D02*
X152878543Y-81330717D01*
D12*
G04 #@! TO.P,BT1,1*
G04 #@! TO.N,+3V3*
X138355320Y-81153940D03*
D13*
G04 #@! TD*
G04 #@! TO.N,+3V3*
G04 #@! TO.C,BT1*
X138532097Y-81330717D02*
X138178543Y-80977163D01*
D14*
G04 #@! TO.P,U1,1*
G04 #@! TO.N,+3V3*
X151350980Y-67840860D03*
G04 #@! TO.P,U1,2*
G04 #@! TO.N,GND*
X150080980Y-67840860D03*
G04 #@! TO.P,U1,3*
G04 #@! TO.N,Net-(U1-Pad3)*
X148810980Y-67840860D03*
G04 #@! TO.P,U1,4*
G04 #@! TO.N,Net-(U1-Pad4)*
X147540980Y-67840860D03*
G04 #@! TO.P,U1,5*
G04 #@! TO.N,Net-(U1-Pad5)*
X146270980Y-67840860D03*
G04 #@! TO.P,U1,6*
G04 #@! TO.N,Net-(U1-Pad6)*
X145000980Y-67840860D03*
G04 #@! TO.P,U1,7*
G04 #@! TO.N,Net-(U1-Pad7)*
X143730980Y-67840860D03*
G04 #@! TO.P,U1,8*
G04 #@! TO.N,D2*
X142460980Y-67840860D03*
G04 #@! TO.P,U1,9*
G04 #@! TO.N,Net-(U1-Pad9)*
X141190980Y-67840860D03*
G04 #@! TO.P,U1,10*
G04 #@! TO.N,A4*
X139920980Y-67840860D03*
G04 #@! TO.P,U1,11*
G04 #@! TO.N,A3*
X138650980Y-67840860D03*
D15*
G04 #@! TO.P,U1,2*
G04 #@! TO.N,GND*
X153997660Y-67749420D03*
D14*
G04 #@! TO.P,U1,12*
G04 #@! TO.N,A2*
X137380980Y-67840860D03*
G04 #@! TD*
D16*
G04 #@! TO.P,REF\002A\002A,*
G04 #@! TO.N,D2*
X153682700Y-84658200D03*
G04 #@! TD*
D17*
G04 #@! TO.N,GND*
X149445980Y-70868540D03*
X153098500Y-70868540D03*
X143812260Y-82885280D03*
G04 #@! TO.N,D2*
X139504420Y-76725780D03*
X141333219Y-78564740D03*
G04 #@! TO.N,A3*
X143484600Y-79679800D03*
X139240260Y-78996540D03*
G04 #@! TD*
D18*
G04 #@! TO.N,+3V3*
X138355320Y-81182460D02*
X138355320Y-81153940D01*
X151350980Y-68560140D02*
X151350980Y-70365620D01*
X151350980Y-70281800D02*
X151350980Y-67840860D01*
X149661880Y-71970900D02*
X151350980Y-70281800D01*
X142206980Y-71970900D02*
X149661880Y-71970900D01*
X140370560Y-73807320D02*
X142206980Y-71970900D01*
X140370560Y-79138700D02*
X140370560Y-73807320D01*
X138355320Y-81153940D02*
X140370560Y-79138700D01*
G04 #@! TO.N,GND*
X150080980Y-67160140D02*
X150080980Y-70233540D01*
X149845979Y-70468541D02*
X149445980Y-70868540D01*
X150080980Y-70233540D02*
X149845979Y-70468541D01*
X153997660Y-67086480D02*
X153098500Y-67985640D01*
X153098500Y-70302855D02*
X153098500Y-70868540D01*
X153098500Y-67985640D02*
X153098500Y-70302855D01*
X143412261Y-83285279D02*
X143812260Y-82885280D01*
X142016480Y-84681060D02*
X143412261Y-83285279D01*
X137695940Y-84681060D02*
X142016480Y-84681060D01*
G04 #@! TO.N,D2*
X142460980Y-69940860D02*
X142460980Y-67840860D01*
X142460980Y-70690860D02*
X139504420Y-73647420D01*
X142460980Y-67840860D02*
X142460980Y-70690860D01*
X139504420Y-73647420D02*
X139504420Y-76725780D01*
X139504420Y-76725780D02*
X139504420Y-76725780D01*
X153682700Y-84658200D02*
X147426679Y-84658200D01*
X147426679Y-84658200D02*
X141733218Y-78964739D01*
X141733218Y-78964739D02*
X141333219Y-78564740D01*
G04 #@! TO.N,A2*
X140843000Y-83108800D02*
X141732000Y-82219800D01*
X137012680Y-83108800D02*
X140843000Y-83108800D01*
X136730740Y-82826860D02*
X137012680Y-83108800D01*
X136730740Y-71282560D02*
X136730740Y-82826860D01*
X137380980Y-67840860D02*
X137380980Y-70632320D01*
X137380980Y-70632320D02*
X136730740Y-71282560D01*
G04 #@! TO.N,A3*
X148696360Y-82326480D02*
X146049680Y-79679800D01*
X149946360Y-82326480D02*
X148696360Y-82326480D01*
X146049680Y-79679800D02*
X143484600Y-79679800D01*
X143484600Y-79679800D02*
X143482060Y-79679800D01*
X138840261Y-78596541D02*
X139240260Y-78996540D01*
X138650980Y-78407260D02*
X138840261Y-78596541D01*
X138650980Y-67840860D02*
X138650980Y-78407260D01*
G04 #@! TD*
M02*
