G04 #@! TF.GenerationSoftware,KiCad,Pcbnew,(5.0.2)-1*
G04 #@! TF.CreationDate,2019-07-28T23:18:33+08:00*
G04 #@! TF.ProjectId,DOOR,444f4f52-2e6b-4696-9361-645f70636258,rev?*
G04 #@! TF.SameCoordinates,Original*
G04 #@! TF.FileFunction,Soldermask,Bot*
G04 #@! TF.FilePolarity,Negative*
%FSLAX46Y46*%
G04 Gerber Fmt 4.6, Leading zero omitted, Abs format (unit mm)*
G04 Created by KiCad (PCBNEW (5.0.2)-1) date 2019-07-28 23:18:33*
%MOMM*%
%LPD*%
G01*
G04 APERTURE LIST*
%ADD10C,0.100000*%
G04 APERTURE END LIST*
D10*
G36*
X138384575Y-79941370D02*
X138582689Y-80001468D01*
X138765272Y-80099060D01*
X138885205Y-80197487D01*
X139311773Y-80624055D01*
X139410199Y-80743987D01*
X139507791Y-80926569D01*
X139507792Y-80926571D01*
X139567889Y-81124684D01*
X139567889Y-81124685D01*
X139567890Y-81124689D01*
X139588182Y-81330717D01*
X139567890Y-81536745D01*
X139567889Y-81536748D01*
X139567889Y-81536749D01*
X139507792Y-81734863D01*
X139410199Y-81917446D01*
X139375986Y-81959134D01*
X139278862Y-82077482D01*
X139160514Y-82174606D01*
X139118826Y-82208819D01*
X138936243Y-82306412D01*
X138738129Y-82366509D01*
X138738128Y-82366509D01*
X138738125Y-82366510D01*
X138532097Y-82386802D01*
X138326069Y-82366510D01*
X138326067Y-82366509D01*
X138326064Y-82366509D01*
X138127951Y-82306412D01*
X138127949Y-82306411D01*
X137945367Y-82208819D01*
X137825435Y-82110393D01*
X137398867Y-81683825D01*
X137300440Y-81563892D01*
X137202848Y-81381309D01*
X137142750Y-81183195D01*
X137122458Y-80977163D01*
X137142750Y-80771131D01*
X137202848Y-80573017D01*
X137300438Y-80390438D01*
X137431778Y-80230398D01*
X137591818Y-80099058D01*
X137774397Y-80001468D01*
X137972511Y-79941370D01*
X138178543Y-79921078D01*
X138384575Y-79941370D01*
X138384575Y-79941370D01*
G37*
G36*
X153438125Y-79941370D02*
X153438128Y-79941371D01*
X153438129Y-79941371D01*
X153636243Y-80001468D01*
X153818826Y-80099061D01*
X153860514Y-80133274D01*
X153978862Y-80230398D01*
X154075986Y-80348746D01*
X154110199Y-80390434D01*
X154110200Y-80390436D01*
X154207791Y-80573015D01*
X154267890Y-80771135D01*
X154288182Y-80977163D01*
X154267890Y-81183191D01*
X154267889Y-81183193D01*
X154267889Y-81183196D01*
X154223139Y-81330717D01*
X154207791Y-81381311D01*
X154110199Y-81563893D01*
X154011773Y-81683825D01*
X153585205Y-82110393D01*
X153465272Y-82208820D01*
X153282689Y-82306412D01*
X153084575Y-82366510D01*
X152981559Y-82376655D01*
X152878543Y-82386802D01*
X152775527Y-82376655D01*
X152672511Y-82366510D01*
X152474397Y-82306412D01*
X152291818Y-82208822D01*
X152131778Y-82077482D01*
X152000438Y-81917442D01*
X151902848Y-81734863D01*
X151842750Y-81536749D01*
X151832605Y-81433733D01*
X151822458Y-81330717D01*
X151836988Y-81183191D01*
X151842750Y-81124685D01*
X151902848Y-80926571D01*
X152000440Y-80743988D01*
X152098867Y-80624055D01*
X152525435Y-80197487D01*
X152645367Y-80099061D01*
X152827949Y-80001469D01*
X152827951Y-80001468D01*
X153026064Y-79941371D01*
X153026067Y-79941371D01*
X153026069Y-79941370D01*
X153232097Y-79921078D01*
X153438125Y-79941370D01*
X153438125Y-79941370D01*
G37*
G36*
X146835846Y-71879622D02*
X146835848Y-71879623D01*
X146835849Y-71879623D01*
X147482089Y-72147304D01*
X147482090Y-72147305D01*
X148063694Y-72535920D01*
X148558300Y-73030526D01*
X148558302Y-73030529D01*
X148946916Y-73612131D01*
X149214597Y-74258371D01*
X149351060Y-74944417D01*
X149351060Y-75643903D01*
X149214597Y-76329949D01*
X148946916Y-76976189D01*
X148946915Y-76976190D01*
X148558300Y-77557794D01*
X148063694Y-78052400D01*
X148063691Y-78052402D01*
X147482089Y-78441016D01*
X146835849Y-78708697D01*
X146835848Y-78708697D01*
X146835846Y-78708698D01*
X146149804Y-78845160D01*
X145450316Y-78845160D01*
X144764274Y-78708698D01*
X144764272Y-78708697D01*
X144764271Y-78708697D01*
X144118031Y-78441016D01*
X143536429Y-78052402D01*
X143536426Y-78052400D01*
X143041820Y-77557794D01*
X142653205Y-76976190D01*
X142653204Y-76976189D01*
X142385523Y-76329949D01*
X142249060Y-75643903D01*
X142249060Y-74944417D01*
X142385523Y-74258371D01*
X142653204Y-73612131D01*
X143041818Y-73030529D01*
X143041820Y-73030526D01*
X143536426Y-72535920D01*
X144118030Y-72147305D01*
X144118031Y-72147304D01*
X144764271Y-71879623D01*
X144764272Y-71879623D01*
X144764274Y-71879622D01*
X145450316Y-71743160D01*
X146149804Y-71743160D01*
X146835846Y-71879622D01*
X146835846Y-71879622D01*
G37*
M02*
