G04 #@! TF.GenerationSoftware,KiCad,Pcbnew,(5.0.2)-1*
G04 #@! TF.CreationDate,2019-07-28T23:18:33+08:00*
G04 #@! TF.ProjectId,DOOR,444f4f52-2e6b-4696-9361-645f70636258,rev?*
G04 #@! TF.SameCoordinates,Original*
G04 #@! TF.FileFunction,Copper,L2,Bot*
G04 #@! TF.FilePolarity,Positive*
%FSLAX46Y46*%
G04 Gerber Fmt 4.6, Leading zero omitted, Abs format (unit mm)*
G04 Created by KiCad (PCBNEW (5.0.2)-1) date 2019-07-28 23:18:33*
%MOMM*%
%LPD*%
G01*
G04 APERTURE LIST*
G04 #@! TA.AperFunction,ComponentPad*
%ADD10C,2.000000*%
G04 #@! TD*
G04 #@! TA.AperFunction,Conductor*
%ADD11C,2.000000*%
G04 #@! TD*
G04 #@! TA.AperFunction,BGAPad,CuDef*
%ADD12C,7.000000*%
G04 #@! TD*
G04 #@! TA.AperFunction,ViaPad*
%ADD13C,0.800000*%
G04 #@! TD*
G04 #@! TA.AperFunction,Conductor*
%ADD14C,0.250000*%
G04 #@! TD*
G04 APERTURE END LIST*
D10*
G04 #@! TO.P,BT1,1*
G04 #@! TO.N,+3V3*
X153055320Y-81153940D03*
D11*
G04 #@! TD*
G04 #@! TO.N,+3V3*
G04 #@! TO.C,BT1*
X153232097Y-80977163D02*
X152878543Y-81330717D01*
D12*
G04 #@! TO.P,BT1,2*
G04 #@! TO.N,GND*
X145800060Y-75294160D03*
D10*
G04 #@! TO.P,BT1,1*
G04 #@! TO.N,+3V3*
X138355320Y-81153940D03*
D11*
G04 #@! TD*
G04 #@! TO.N,+3V3*
G04 #@! TO.C,BT1*
X138532097Y-81330717D02*
X138178543Y-80977163D01*
D13*
G04 #@! TO.N,GND*
X149445980Y-70868540D03*
X153098500Y-70868540D03*
X143812260Y-82885280D03*
G04 #@! TO.N,D2*
X139504420Y-76725780D03*
X141333219Y-78564740D03*
G04 #@! TO.N,A3*
X143484600Y-79679800D03*
X139240260Y-78996540D03*
G04 #@! TD*
D14*
G04 #@! TO.N,GND*
X149445980Y-70868540D02*
X153098500Y-70868540D01*
X145768060Y-74546460D02*
X149445980Y-70868540D01*
X145800060Y-75294160D02*
X145768060Y-75262160D01*
X145768060Y-75262160D02*
X145768060Y-74546460D01*
X145800060Y-80897480D02*
X144212259Y-82485281D01*
X144212259Y-82485281D02*
X143812260Y-82885280D01*
X145800060Y-75294160D02*
X145800060Y-80897480D01*
G04 #@! TO.N,D2*
X139504420Y-76725780D02*
X141333219Y-78554579D01*
X141333219Y-78554579D02*
X141333219Y-78564740D01*
G04 #@! TO.N,A3*
X139640259Y-79396539D02*
X139240260Y-78996540D01*
X139913360Y-79669640D02*
X139640259Y-79396539D01*
X143484600Y-79679800D02*
X143474440Y-79669640D01*
X143474440Y-79669640D02*
X139913360Y-79669640D01*
G04 #@! TD*
M02*
