G04 #@! TF.GenerationSoftware,KiCad,Pcbnew,(5.0.2)-1*
G04 #@! TF.CreationDate,2019-07-28T23:18:33+08:00*
G04 #@! TF.ProjectId,DOOR,444f4f52-2e6b-4696-9361-645f70636258,rev?*
G04 #@! TF.SameCoordinates,Original*
G04 #@! TF.FileFunction,Soldermask,Top*
G04 #@! TF.FilePolarity,Negative*
%FSLAX46Y46*%
G04 Gerber Fmt 4.6, Leading zero omitted, Abs format (unit mm)*
G04 Created by KiCad (PCBNEW (5.0.2)-1) date 2019-07-28 23:18:33*
%MOMM*%
%LPD*%
G01*
G04 APERTURE LIST*
%ADD10C,0.100000*%
G04 APERTURE END LIST*
D10*
G36*
X138028450Y-83633101D02*
X138151972Y-83645267D01*
X138350086Y-83705365D01*
X138532669Y-83802957D01*
X138692705Y-83934295D01*
X138824043Y-84094331D01*
X138921635Y-84276914D01*
X138981733Y-84475028D01*
X139002025Y-84681060D01*
X138981733Y-84887092D01*
X138921635Y-85085206D01*
X138824043Y-85267789D01*
X138692705Y-85427825D01*
X138532669Y-85559163D01*
X138350086Y-85656755D01*
X138151972Y-85716853D01*
X138028450Y-85729019D01*
X137997571Y-85732060D01*
X137394309Y-85732060D01*
X137363430Y-85729019D01*
X137239908Y-85716853D01*
X137041794Y-85656755D01*
X136859211Y-85559163D01*
X136699175Y-85427825D01*
X136567837Y-85267789D01*
X136470245Y-85085206D01*
X136410147Y-84887092D01*
X136389855Y-84681060D01*
X136410147Y-84475028D01*
X136470245Y-84276914D01*
X136567837Y-84094331D01*
X136699175Y-83934295D01*
X136859211Y-83802957D01*
X137041794Y-83705365D01*
X137239908Y-83645267D01*
X137363430Y-83633101D01*
X137394309Y-83630060D01*
X137997571Y-83630060D01*
X138028450Y-83633101D01*
X138028450Y-83633101D01*
G37*
G36*
X154265210Y-83610241D02*
X154388732Y-83622407D01*
X154586846Y-83682505D01*
X154769429Y-83780097D01*
X154929465Y-83911435D01*
X155060803Y-84071471D01*
X155158395Y-84254054D01*
X155218493Y-84452168D01*
X155238785Y-84658200D01*
X155218493Y-84864232D01*
X155158395Y-85062346D01*
X155060803Y-85244929D01*
X154929465Y-85404965D01*
X154769429Y-85536303D01*
X154586846Y-85633895D01*
X154388732Y-85693993D01*
X154265210Y-85706159D01*
X154234331Y-85709200D01*
X153131069Y-85709200D01*
X153100190Y-85706159D01*
X152976668Y-85693993D01*
X152778554Y-85633895D01*
X152595971Y-85536303D01*
X152435935Y-85404965D01*
X152304597Y-85244929D01*
X152207005Y-85062346D01*
X152146907Y-84864232D01*
X152126615Y-84658200D01*
X152146907Y-84452168D01*
X152207005Y-84254054D01*
X152304597Y-84071471D01*
X152435935Y-83911435D01*
X152595971Y-83780097D01*
X152778554Y-83682505D01*
X152976668Y-83622407D01*
X153100190Y-83610241D01*
X153131069Y-83607200D01*
X154234331Y-83607200D01*
X154265210Y-83610241D01*
X154265210Y-83610241D01*
G37*
G36*
X150152391Y-80790687D02*
X150350505Y-80850785D01*
X150533089Y-80948377D01*
X150693125Y-81079715D01*
X150693126Y-81079717D01*
X150693128Y-81079718D01*
X150736913Y-81133071D01*
X150824463Y-81239751D01*
X150922055Y-81422334D01*
X150982153Y-81620448D01*
X150997360Y-81774850D01*
X150997360Y-82878110D01*
X150982153Y-83032512D01*
X150922055Y-83230626D01*
X150824463Y-83413209D01*
X150693125Y-83573245D01*
X150533089Y-83704583D01*
X150350506Y-83802175D01*
X150152392Y-83862273D01*
X149946360Y-83882565D01*
X149740329Y-83862273D01*
X149542215Y-83802175D01*
X149359632Y-83704583D01*
X149199596Y-83573245D01*
X149112046Y-83466565D01*
X149068259Y-83413211D01*
X148970666Y-83230628D01*
X148910567Y-83032508D01*
X148895360Y-82878111D01*
X148895360Y-81774850D01*
X148910567Y-81620453D01*
X148910567Y-81620449D01*
X148970665Y-81422335D01*
X149068257Y-81239751D01*
X149199595Y-81079715D01*
X149199597Y-81079714D01*
X149199598Y-81079712D01*
X149324555Y-80977163D01*
X149359631Y-80948377D01*
X149542214Y-80850785D01*
X149740328Y-80790687D01*
X149946360Y-80770395D01*
X150152391Y-80790687D01*
X150152391Y-80790687D01*
G37*
G36*
X141938031Y-80684007D02*
X142136145Y-80744105D01*
X142318729Y-80841697D01*
X142478765Y-80973035D01*
X142478766Y-80973037D01*
X142478768Y-80973038D01*
X142482153Y-80977163D01*
X142610103Y-81133071D01*
X142707695Y-81315654D01*
X142767793Y-81513768D01*
X142783000Y-81668170D01*
X142783000Y-82771430D01*
X142767793Y-82925832D01*
X142707695Y-83123946D01*
X142610103Y-83306529D01*
X142478765Y-83466565D01*
X142318729Y-83597903D01*
X142136146Y-83695495D01*
X141938032Y-83755593D01*
X141732000Y-83775885D01*
X141525969Y-83755593D01*
X141327855Y-83695495D01*
X141145272Y-83597903D01*
X140985236Y-83466565D01*
X140853899Y-83306531D01*
X140756306Y-83123948D01*
X140696207Y-82925828D01*
X140681000Y-82771431D01*
X140681000Y-81668170D01*
X140685700Y-81620448D01*
X140696207Y-81513769D01*
X140756305Y-81315655D01*
X140853897Y-81133071D01*
X140985235Y-80973035D01*
X140985237Y-80973034D01*
X140985238Y-80973032D01*
X141134196Y-80850786D01*
X141145271Y-80841697D01*
X141327854Y-80744105D01*
X141525968Y-80684007D01*
X141732000Y-80663715D01*
X141938031Y-80684007D01*
X141938031Y-80684007D01*
G37*
G36*
X138384575Y-79941370D02*
X138582689Y-80001468D01*
X138765272Y-80099060D01*
X138885205Y-80197487D01*
X139311773Y-80624055D01*
X139410199Y-80743987D01*
X139467284Y-80850786D01*
X139507792Y-80926571D01*
X139567889Y-81124684D01*
X139567889Y-81124685D01*
X139567890Y-81124689D01*
X139588182Y-81330717D01*
X139567890Y-81536745D01*
X139567889Y-81536748D01*
X139567889Y-81536749D01*
X139507792Y-81734863D01*
X139410199Y-81917446D01*
X139375986Y-81959134D01*
X139278862Y-82077482D01*
X139160514Y-82174606D01*
X139118826Y-82208819D01*
X138936243Y-82306412D01*
X138738129Y-82366509D01*
X138738128Y-82366509D01*
X138738125Y-82366510D01*
X138532097Y-82386802D01*
X138326069Y-82366510D01*
X138326067Y-82366509D01*
X138326064Y-82366509D01*
X138127951Y-82306412D01*
X138127949Y-82306411D01*
X137945367Y-82208819D01*
X137825435Y-82110393D01*
X137398867Y-81683825D01*
X137300440Y-81563892D01*
X137202848Y-81381309D01*
X137142750Y-81183195D01*
X137132559Y-81079712D01*
X137122458Y-80977163D01*
X137134905Y-80850786D01*
X137142750Y-80771131D01*
X137202848Y-80573017D01*
X137300438Y-80390438D01*
X137431778Y-80230398D01*
X137591818Y-80099058D01*
X137774397Y-80001468D01*
X137972511Y-79941370D01*
X138178543Y-79921078D01*
X138384575Y-79941370D01*
X138384575Y-79941370D01*
G37*
G36*
X153438125Y-79941370D02*
X153438128Y-79941371D01*
X153438129Y-79941371D01*
X153636243Y-80001468D01*
X153818826Y-80099061D01*
X153860514Y-80133274D01*
X153978862Y-80230398D01*
X154075986Y-80348746D01*
X154110199Y-80390434D01*
X154110200Y-80390436D01*
X154207791Y-80573015D01*
X154267890Y-80771135D01*
X154288182Y-80977163D01*
X154267890Y-81183191D01*
X154267889Y-81183193D01*
X154267889Y-81183196D01*
X154227708Y-81315654D01*
X154207791Y-81381311D01*
X154110199Y-81563893D01*
X154011773Y-81683825D01*
X153585205Y-82110393D01*
X153465272Y-82208820D01*
X153282689Y-82306412D01*
X153084575Y-82366510D01*
X152981559Y-82376655D01*
X152878543Y-82386802D01*
X152775527Y-82376655D01*
X152672511Y-82366510D01*
X152474397Y-82306412D01*
X152291818Y-82208822D01*
X152131778Y-82077482D01*
X152000438Y-81917442D01*
X151902848Y-81734863D01*
X151842750Y-81536749D01*
X151831482Y-81422332D01*
X151822458Y-81330717D01*
X151836988Y-81183191D01*
X151842750Y-81124685D01*
X151902848Y-80926571D01*
X152000440Y-80743988D01*
X152098867Y-80624055D01*
X152525435Y-80197487D01*
X152645367Y-80099061D01*
X152827949Y-80001469D01*
X152827951Y-80001468D01*
X153026064Y-79941371D01*
X153026067Y-79941371D01*
X153026069Y-79941370D01*
X153232097Y-79921078D01*
X153438125Y-79941370D01*
X153438125Y-79941370D01*
G37*
G36*
X151458995Y-65197833D02*
X151562859Y-65229339D01*
X151658580Y-65280504D01*
X151742481Y-65349359D01*
X151811336Y-65433260D01*
X151862501Y-65528981D01*
X151894007Y-65632845D01*
X151901980Y-65713793D01*
X151901980Y-69967927D01*
X151894007Y-70048875D01*
X151862501Y-70152739D01*
X151811336Y-70248460D01*
X151742481Y-70332361D01*
X151658580Y-70401216D01*
X151562858Y-70452381D01*
X151458994Y-70483887D01*
X151350980Y-70494526D01*
X151242965Y-70483887D01*
X151139101Y-70452381D01*
X151043380Y-70401216D01*
X150959479Y-70332361D01*
X150890624Y-70248460D01*
X150839459Y-70152738D01*
X150835595Y-70140001D01*
X150826220Y-70117366D01*
X150812606Y-70096992D01*
X150795279Y-70079665D01*
X150774904Y-70066051D01*
X150752265Y-70056673D01*
X150728232Y-70051893D01*
X150703728Y-70051893D01*
X150679694Y-70056674D01*
X150657055Y-70066051D01*
X150636681Y-70079665D01*
X150619354Y-70096992D01*
X150605740Y-70117367D01*
X150596367Y-70139993D01*
X150592501Y-70152739D01*
X150541336Y-70248460D01*
X150472481Y-70332361D01*
X150388580Y-70401216D01*
X150292858Y-70452381D01*
X150188994Y-70483887D01*
X150080980Y-70494526D01*
X149972965Y-70483887D01*
X149869101Y-70452381D01*
X149773380Y-70401216D01*
X149689479Y-70332361D01*
X149620624Y-70248460D01*
X149569459Y-70152738D01*
X149565595Y-70140001D01*
X149556220Y-70117366D01*
X149542606Y-70096992D01*
X149525279Y-70079665D01*
X149504904Y-70066051D01*
X149482265Y-70056673D01*
X149458232Y-70051893D01*
X149433728Y-70051893D01*
X149409694Y-70056674D01*
X149387055Y-70066051D01*
X149366681Y-70079665D01*
X149349354Y-70096992D01*
X149335740Y-70117367D01*
X149326367Y-70139993D01*
X149322501Y-70152739D01*
X149271336Y-70248460D01*
X149202481Y-70332361D01*
X149118580Y-70401216D01*
X149022858Y-70452381D01*
X148918994Y-70483887D01*
X148810980Y-70494526D01*
X148702965Y-70483887D01*
X148599101Y-70452381D01*
X148503380Y-70401216D01*
X148419479Y-70332361D01*
X148350624Y-70248460D01*
X148299459Y-70152738D01*
X148295595Y-70140001D01*
X148286220Y-70117366D01*
X148272606Y-70096992D01*
X148255279Y-70079665D01*
X148234904Y-70066051D01*
X148212265Y-70056673D01*
X148188232Y-70051893D01*
X148163728Y-70051893D01*
X148139694Y-70056674D01*
X148117055Y-70066051D01*
X148096681Y-70079665D01*
X148079354Y-70096992D01*
X148065740Y-70117367D01*
X148056367Y-70139993D01*
X148052501Y-70152739D01*
X148001336Y-70248460D01*
X147932481Y-70332361D01*
X147848580Y-70401216D01*
X147752858Y-70452381D01*
X147648994Y-70483887D01*
X147540980Y-70494526D01*
X147432965Y-70483887D01*
X147329101Y-70452381D01*
X147233380Y-70401216D01*
X147149479Y-70332361D01*
X147080624Y-70248460D01*
X147029459Y-70152738D01*
X147025595Y-70140001D01*
X147016220Y-70117366D01*
X147002606Y-70096992D01*
X146985279Y-70079665D01*
X146964904Y-70066051D01*
X146942265Y-70056673D01*
X146918232Y-70051893D01*
X146893728Y-70051893D01*
X146869694Y-70056674D01*
X146847055Y-70066051D01*
X146826681Y-70079665D01*
X146809354Y-70096992D01*
X146795740Y-70117367D01*
X146786367Y-70139993D01*
X146782501Y-70152739D01*
X146731336Y-70248460D01*
X146662481Y-70332361D01*
X146578580Y-70401216D01*
X146482858Y-70452381D01*
X146378994Y-70483887D01*
X146270980Y-70494526D01*
X146162965Y-70483887D01*
X146059101Y-70452381D01*
X145963380Y-70401216D01*
X145879479Y-70332361D01*
X145810624Y-70248460D01*
X145759459Y-70152738D01*
X145755595Y-70140001D01*
X145746220Y-70117366D01*
X145732606Y-70096992D01*
X145715279Y-70079665D01*
X145694904Y-70066051D01*
X145672265Y-70056673D01*
X145648232Y-70051893D01*
X145623728Y-70051893D01*
X145599694Y-70056674D01*
X145577055Y-70066051D01*
X145556681Y-70079665D01*
X145539354Y-70096992D01*
X145525740Y-70117367D01*
X145516367Y-70139993D01*
X145512501Y-70152739D01*
X145461336Y-70248460D01*
X145392481Y-70332361D01*
X145308580Y-70401216D01*
X145212858Y-70452381D01*
X145108994Y-70483887D01*
X145000980Y-70494526D01*
X144892965Y-70483887D01*
X144789101Y-70452381D01*
X144693380Y-70401216D01*
X144609479Y-70332361D01*
X144540624Y-70248460D01*
X144489459Y-70152738D01*
X144485595Y-70140001D01*
X144476220Y-70117366D01*
X144462606Y-70096992D01*
X144445279Y-70079665D01*
X144424904Y-70066051D01*
X144402265Y-70056673D01*
X144378232Y-70051893D01*
X144353728Y-70051893D01*
X144329694Y-70056674D01*
X144307055Y-70066051D01*
X144286681Y-70079665D01*
X144269354Y-70096992D01*
X144255740Y-70117367D01*
X144246367Y-70139993D01*
X144242501Y-70152739D01*
X144191336Y-70248460D01*
X144122481Y-70332361D01*
X144038580Y-70401216D01*
X143942858Y-70452381D01*
X143838994Y-70483887D01*
X143730980Y-70494526D01*
X143622965Y-70483887D01*
X143519101Y-70452381D01*
X143423380Y-70401216D01*
X143339479Y-70332361D01*
X143270624Y-70248460D01*
X143219459Y-70152738D01*
X143215595Y-70140001D01*
X143206220Y-70117366D01*
X143192606Y-70096992D01*
X143175279Y-70079665D01*
X143154904Y-70066051D01*
X143132265Y-70056673D01*
X143108232Y-70051893D01*
X143083728Y-70051893D01*
X143059694Y-70056674D01*
X143037055Y-70066051D01*
X143016681Y-70079665D01*
X142999354Y-70096992D01*
X142985740Y-70117367D01*
X142976367Y-70139993D01*
X142972501Y-70152739D01*
X142921336Y-70248460D01*
X142852481Y-70332361D01*
X142768580Y-70401216D01*
X142672858Y-70452381D01*
X142568994Y-70483887D01*
X142460980Y-70494526D01*
X142352965Y-70483887D01*
X142249101Y-70452381D01*
X142153380Y-70401216D01*
X142069479Y-70332361D01*
X142000624Y-70248460D01*
X141949459Y-70152738D01*
X141945595Y-70140001D01*
X141936220Y-70117366D01*
X141922606Y-70096992D01*
X141905279Y-70079665D01*
X141884904Y-70066051D01*
X141862265Y-70056673D01*
X141838232Y-70051893D01*
X141813728Y-70051893D01*
X141789694Y-70056674D01*
X141767055Y-70066051D01*
X141746681Y-70079665D01*
X141729354Y-70096992D01*
X141715740Y-70117367D01*
X141706367Y-70139993D01*
X141702501Y-70152739D01*
X141651336Y-70248460D01*
X141582481Y-70332361D01*
X141498580Y-70401216D01*
X141402858Y-70452381D01*
X141298994Y-70483887D01*
X141190980Y-70494526D01*
X141082965Y-70483887D01*
X140979101Y-70452381D01*
X140883380Y-70401216D01*
X140799479Y-70332361D01*
X140730624Y-70248460D01*
X140679459Y-70152738D01*
X140675595Y-70140001D01*
X140666220Y-70117366D01*
X140652606Y-70096992D01*
X140635279Y-70079665D01*
X140614904Y-70066051D01*
X140592265Y-70056673D01*
X140568232Y-70051893D01*
X140543728Y-70051893D01*
X140519694Y-70056674D01*
X140497055Y-70066051D01*
X140476681Y-70079665D01*
X140459354Y-70096992D01*
X140445740Y-70117367D01*
X140436367Y-70139993D01*
X140432501Y-70152739D01*
X140381336Y-70248460D01*
X140312481Y-70332361D01*
X140228580Y-70401216D01*
X140132858Y-70452381D01*
X140028994Y-70483887D01*
X139920980Y-70494526D01*
X139812965Y-70483887D01*
X139709101Y-70452381D01*
X139613380Y-70401216D01*
X139529479Y-70332361D01*
X139460624Y-70248460D01*
X139409459Y-70152738D01*
X139405595Y-70140001D01*
X139396220Y-70117366D01*
X139382606Y-70096992D01*
X139365279Y-70079665D01*
X139344904Y-70066051D01*
X139322265Y-70056673D01*
X139298232Y-70051893D01*
X139273728Y-70051893D01*
X139249694Y-70056674D01*
X139227055Y-70066051D01*
X139206681Y-70079665D01*
X139189354Y-70096992D01*
X139175740Y-70117367D01*
X139166367Y-70139993D01*
X139162501Y-70152739D01*
X139111336Y-70248460D01*
X139042481Y-70332361D01*
X138958580Y-70401216D01*
X138862858Y-70452381D01*
X138758994Y-70483887D01*
X138650980Y-70494526D01*
X138542965Y-70483887D01*
X138439101Y-70452381D01*
X138343380Y-70401216D01*
X138259479Y-70332361D01*
X138190624Y-70248460D01*
X138139459Y-70152738D01*
X138135595Y-70140001D01*
X138126220Y-70117366D01*
X138112606Y-70096992D01*
X138095279Y-70079665D01*
X138074904Y-70066051D01*
X138052265Y-70056673D01*
X138028232Y-70051893D01*
X138003728Y-70051893D01*
X137979694Y-70056674D01*
X137957055Y-70066051D01*
X137936681Y-70079665D01*
X137919354Y-70096992D01*
X137905740Y-70117367D01*
X137896367Y-70139993D01*
X137892501Y-70152739D01*
X137841336Y-70248460D01*
X137772481Y-70332361D01*
X137688580Y-70401216D01*
X137592858Y-70452381D01*
X137488994Y-70483887D01*
X137380980Y-70494526D01*
X137272965Y-70483887D01*
X137169101Y-70452381D01*
X137073380Y-70401216D01*
X136989479Y-70332361D01*
X136920624Y-70248460D01*
X136869459Y-70152738D01*
X136837953Y-70048874D01*
X136829980Y-69967926D01*
X136829981Y-65713793D01*
X136837954Y-65632845D01*
X136869460Y-65528981D01*
X136920625Y-65433260D01*
X136989480Y-65349359D01*
X137073381Y-65280504D01*
X137169102Y-65229339D01*
X137272966Y-65197833D01*
X137380980Y-65187194D01*
X137488995Y-65197833D01*
X137592859Y-65229339D01*
X137688580Y-65280504D01*
X137772481Y-65349359D01*
X137841336Y-65433260D01*
X137892501Y-65528981D01*
X137896366Y-65541724D01*
X137905742Y-65564356D01*
X137919356Y-65584731D01*
X137936683Y-65602058D01*
X137957058Y-65615671D01*
X137979697Y-65625048D01*
X138003731Y-65629828D01*
X138028235Y-65629828D01*
X138052269Y-65625047D01*
X138074907Y-65615669D01*
X138095282Y-65602055D01*
X138112609Y-65584728D01*
X138126222Y-65564353D01*
X138135595Y-65541723D01*
X138139460Y-65528981D01*
X138190625Y-65433260D01*
X138259480Y-65349359D01*
X138343381Y-65280504D01*
X138439102Y-65229339D01*
X138542966Y-65197833D01*
X138650980Y-65187194D01*
X138758995Y-65197833D01*
X138862859Y-65229339D01*
X138958580Y-65280504D01*
X139042481Y-65349359D01*
X139111336Y-65433260D01*
X139162501Y-65528981D01*
X139166366Y-65541724D01*
X139175742Y-65564356D01*
X139189356Y-65584731D01*
X139206683Y-65602058D01*
X139227058Y-65615671D01*
X139249697Y-65625048D01*
X139273731Y-65629828D01*
X139298235Y-65629828D01*
X139322269Y-65625047D01*
X139344907Y-65615669D01*
X139365282Y-65602055D01*
X139382609Y-65584728D01*
X139396222Y-65564353D01*
X139405595Y-65541723D01*
X139409460Y-65528981D01*
X139460625Y-65433260D01*
X139529480Y-65349359D01*
X139613381Y-65280504D01*
X139709102Y-65229339D01*
X139812966Y-65197833D01*
X139920980Y-65187194D01*
X140028995Y-65197833D01*
X140132859Y-65229339D01*
X140228580Y-65280504D01*
X140312481Y-65349359D01*
X140381336Y-65433260D01*
X140432501Y-65528981D01*
X140436366Y-65541724D01*
X140445742Y-65564356D01*
X140459356Y-65584731D01*
X140476683Y-65602058D01*
X140497058Y-65615671D01*
X140519697Y-65625048D01*
X140543731Y-65629828D01*
X140568235Y-65629828D01*
X140592269Y-65625047D01*
X140614907Y-65615669D01*
X140635282Y-65602055D01*
X140652609Y-65584728D01*
X140666222Y-65564353D01*
X140675595Y-65541723D01*
X140679460Y-65528981D01*
X140730625Y-65433260D01*
X140799480Y-65349359D01*
X140883381Y-65280504D01*
X140979102Y-65229339D01*
X141082966Y-65197833D01*
X141190980Y-65187194D01*
X141298995Y-65197833D01*
X141402859Y-65229339D01*
X141498580Y-65280504D01*
X141582481Y-65349359D01*
X141651336Y-65433260D01*
X141702501Y-65528981D01*
X141706366Y-65541724D01*
X141715742Y-65564356D01*
X141729356Y-65584731D01*
X141746683Y-65602058D01*
X141767058Y-65615671D01*
X141789697Y-65625048D01*
X141813731Y-65629828D01*
X141838235Y-65629828D01*
X141862269Y-65625047D01*
X141884907Y-65615669D01*
X141905282Y-65602055D01*
X141922609Y-65584728D01*
X141936222Y-65564353D01*
X141945595Y-65541723D01*
X141949460Y-65528981D01*
X142000625Y-65433260D01*
X142069480Y-65349359D01*
X142153381Y-65280504D01*
X142249102Y-65229339D01*
X142352966Y-65197833D01*
X142460980Y-65187194D01*
X142568995Y-65197833D01*
X142672859Y-65229339D01*
X142768580Y-65280504D01*
X142852481Y-65349359D01*
X142921336Y-65433260D01*
X142972501Y-65528981D01*
X142976366Y-65541724D01*
X142985742Y-65564356D01*
X142999356Y-65584731D01*
X143016683Y-65602058D01*
X143037058Y-65615671D01*
X143059697Y-65625048D01*
X143083731Y-65629828D01*
X143108235Y-65629828D01*
X143132269Y-65625047D01*
X143154907Y-65615669D01*
X143175282Y-65602055D01*
X143192609Y-65584728D01*
X143206222Y-65564353D01*
X143215595Y-65541723D01*
X143219460Y-65528981D01*
X143270625Y-65433260D01*
X143339480Y-65349359D01*
X143423381Y-65280504D01*
X143519102Y-65229339D01*
X143622966Y-65197833D01*
X143730980Y-65187194D01*
X143838995Y-65197833D01*
X143942859Y-65229339D01*
X144038580Y-65280504D01*
X144122481Y-65349359D01*
X144191336Y-65433260D01*
X144242501Y-65528981D01*
X144246366Y-65541724D01*
X144255742Y-65564356D01*
X144269356Y-65584731D01*
X144286683Y-65602058D01*
X144307058Y-65615671D01*
X144329697Y-65625048D01*
X144353731Y-65629828D01*
X144378235Y-65629828D01*
X144402269Y-65625047D01*
X144424907Y-65615669D01*
X144445282Y-65602055D01*
X144462609Y-65584728D01*
X144476222Y-65564353D01*
X144485595Y-65541723D01*
X144489460Y-65528981D01*
X144540625Y-65433260D01*
X144609480Y-65349359D01*
X144693381Y-65280504D01*
X144789102Y-65229339D01*
X144892966Y-65197833D01*
X145000980Y-65187194D01*
X145108995Y-65197833D01*
X145212859Y-65229339D01*
X145308580Y-65280504D01*
X145392481Y-65349359D01*
X145461336Y-65433260D01*
X145512501Y-65528981D01*
X145516366Y-65541724D01*
X145525742Y-65564356D01*
X145539356Y-65584731D01*
X145556683Y-65602058D01*
X145577058Y-65615671D01*
X145599697Y-65625048D01*
X145623731Y-65629828D01*
X145648235Y-65629828D01*
X145672269Y-65625047D01*
X145694907Y-65615669D01*
X145715282Y-65602055D01*
X145732609Y-65584728D01*
X145746222Y-65564353D01*
X145755595Y-65541723D01*
X145759460Y-65528981D01*
X145810625Y-65433260D01*
X145879480Y-65349359D01*
X145963381Y-65280504D01*
X146059102Y-65229339D01*
X146162966Y-65197833D01*
X146270980Y-65187194D01*
X146378995Y-65197833D01*
X146482859Y-65229339D01*
X146578580Y-65280504D01*
X146662481Y-65349359D01*
X146731336Y-65433260D01*
X146782501Y-65528981D01*
X146786366Y-65541724D01*
X146795742Y-65564356D01*
X146809356Y-65584731D01*
X146826683Y-65602058D01*
X146847058Y-65615671D01*
X146869697Y-65625048D01*
X146893731Y-65629828D01*
X146918235Y-65629828D01*
X146942269Y-65625047D01*
X146964907Y-65615669D01*
X146985282Y-65602055D01*
X147002609Y-65584728D01*
X147016222Y-65564353D01*
X147025595Y-65541723D01*
X147029460Y-65528981D01*
X147080625Y-65433260D01*
X147149480Y-65349359D01*
X147233381Y-65280504D01*
X147329102Y-65229339D01*
X147432966Y-65197833D01*
X147540980Y-65187194D01*
X147648995Y-65197833D01*
X147752859Y-65229339D01*
X147848580Y-65280504D01*
X147932481Y-65349359D01*
X148001336Y-65433260D01*
X148052501Y-65528981D01*
X148056366Y-65541724D01*
X148065742Y-65564356D01*
X148079356Y-65584731D01*
X148096683Y-65602058D01*
X148117058Y-65615671D01*
X148139697Y-65625048D01*
X148163731Y-65629828D01*
X148188235Y-65629828D01*
X148212269Y-65625047D01*
X148234907Y-65615669D01*
X148255282Y-65602055D01*
X148272609Y-65584728D01*
X148286222Y-65564353D01*
X148295595Y-65541723D01*
X148299460Y-65528981D01*
X148350625Y-65433260D01*
X148419480Y-65349359D01*
X148503381Y-65280504D01*
X148599102Y-65229339D01*
X148702966Y-65197833D01*
X148810980Y-65187194D01*
X148918995Y-65197833D01*
X149022859Y-65229339D01*
X149118580Y-65280504D01*
X149202481Y-65349359D01*
X149271336Y-65433260D01*
X149322501Y-65528981D01*
X149326366Y-65541724D01*
X149335742Y-65564356D01*
X149349356Y-65584731D01*
X149366683Y-65602058D01*
X149387058Y-65615671D01*
X149409697Y-65625048D01*
X149433731Y-65629828D01*
X149458235Y-65629828D01*
X149482269Y-65625047D01*
X149504907Y-65615669D01*
X149525282Y-65602055D01*
X149542609Y-65584728D01*
X149556222Y-65564353D01*
X149565595Y-65541723D01*
X149569460Y-65528981D01*
X149620625Y-65433260D01*
X149689480Y-65349359D01*
X149773381Y-65280504D01*
X149869102Y-65229339D01*
X149972966Y-65197833D01*
X150080980Y-65187194D01*
X150188995Y-65197833D01*
X150292859Y-65229339D01*
X150388580Y-65280504D01*
X150472481Y-65349359D01*
X150541336Y-65433260D01*
X150592501Y-65528981D01*
X150596366Y-65541724D01*
X150605742Y-65564356D01*
X150619356Y-65584731D01*
X150636683Y-65602058D01*
X150657058Y-65615671D01*
X150679697Y-65625048D01*
X150703731Y-65629828D01*
X150728235Y-65629828D01*
X150752269Y-65625047D01*
X150774907Y-65615669D01*
X150795282Y-65602055D01*
X150812609Y-65584728D01*
X150826222Y-65564353D01*
X150835595Y-65541723D01*
X150839460Y-65528981D01*
X150890625Y-65433260D01*
X150959480Y-65349359D01*
X151043381Y-65280504D01*
X151139102Y-65229339D01*
X151242966Y-65197833D01*
X151350980Y-65187194D01*
X151458995Y-65197833D01*
X151458995Y-65197833D01*
G37*
G36*
X154252700Y-65217245D02*
X154497940Y-65291638D01*
X154497942Y-65291639D01*
X154723956Y-65412446D01*
X154922057Y-65575023D01*
X155084634Y-65773124D01*
X155084635Y-65773126D01*
X155205442Y-65999140D01*
X155279835Y-66244380D01*
X155298660Y-66435515D01*
X155298660Y-69063325D01*
X155279835Y-69254460D01*
X155205442Y-69499700D01*
X155084636Y-69725713D01*
X155084634Y-69725715D01*
X154922056Y-69923817D01*
X154723955Y-70086394D01*
X154623656Y-70140005D01*
X154497939Y-70207202D01*
X154252699Y-70281595D01*
X153997660Y-70306714D01*
X153742620Y-70281595D01*
X153497380Y-70207202D01*
X153271366Y-70086395D01*
X153225647Y-70048874D01*
X153073263Y-69923816D01*
X152910686Y-69725715D01*
X152789879Y-69499701D01*
X152789878Y-69499699D01*
X152715485Y-69254459D01*
X152696660Y-69063324D01*
X152696661Y-66435515D01*
X152715486Y-66244380D01*
X152789879Y-65999140D01*
X152910686Y-65773126D01*
X152910687Y-65773124D01*
X153073264Y-65575023D01*
X153271365Y-65412446D01*
X153497379Y-65291639D01*
X153497381Y-65291638D01*
X153742621Y-65217245D01*
X153997660Y-65192126D01*
X154252700Y-65217245D01*
X154252700Y-65217245D01*
G37*
M02*
